<?xml version="1.0" encoding="utf-8" standalone="no"?>
<!DOCTYPE svg PUBLIC "-//W3C//DTD SVG 1.1//EN"
  "http://www.w3.org/Graphics/SVG/1.1/DTD/svg11.dtd">
<!-- Created with matplotlib (https://matplotlib.org/) -->
<svg height="265.314707pt" version="1.1" viewBox="0 0 500.389687 265.314707" width="500.389687pt" xmlns="http://www.w3.org/2000/svg" xmlns:xlink="http://www.w3.org/1999/xlink">
 <metadata>
  <rdf:RDF xmlns:cc="http://creativecommons.org/ns#" xmlns:dc="http://purl.org/dc/elements/1.1/" xmlns:rdf="http://www.w3.org/1999/02/22-rdf-syntax-ns#">
   <cc:Work>
    <dc:type rdf:resource="http://purl.org/dc/dcmitype/StillImage"/>
    <dc:date>2020-12-05T22:37:32.289884</dc:date>
    <dc:format>image/svg+xml</dc:format>
    <dc:creator>
     <cc:Agent>
      <dc:title>Matplotlib v3.3.1, https://matplotlib.org/</dc:title>
     </cc:Agent>
    </dc:creator>
   </cc:Work>
  </rdf:RDF>
 </metadata>
 <defs>
  <style type="text/css">*{stroke-linecap:butt;stroke-linejoin:round;}</style>
 </defs>
 <g id="figure_1">
  <g id="patch_1">
   <path d="M 0 265.314707 
L 500.389687 265.314707 
L 500.389687 0 
L 0 0 
z
" style="fill:#ffffff;stroke:#ffffff;stroke-linejoin:miter;"/>
  </g>
  <g id="axes_1">
   <g id="patch_2">
    <path d="M 46.789687 228.96 
L 493.189687 228.96 
L 493.189687 7.2 
L 46.789687 7.2 
z
" style="fill:#ffffff;stroke:#7f7f7f;stroke-linejoin:miter;"/>
   </g>
   <g id="matplotlib.axis_1">
    <g id="xtick_1">
     <g id="line2d_1">
      <path clip-path="url(#p3e1bead61b)" d="M 59.42365 228.96 
L 59.42365 7.2 
" style="fill:none;stroke:#e5e5e5;stroke-width:0.8;"/>
     </g>
     <g id="line2d_2">
      <path d="M 59.42365 228.96 
" style="fill:none;stroke:#333333;stroke-width:1.5;"/>
      <defs>
       <path d="M 0 0 
L 0 2.75 
" id="m6abb422c78" style="stroke:#000000;"/>
      </defs>
      <g>
       <use style="fill:#333333;stroke:#000000;" x="59.42365" xlink:href="#m6abb422c78" y="228.96"/>
      </g>
     </g>
     <g id="text_1">
      <!-- HNSC -->
      <g style="fill:#4d4d4d;" transform="translate(52.325579 256.268363)rotate(-45)scale(0.088 -0.088)">
       <defs>
        <path d="M 9.8125 72.90625 
L 19.671875 72.90625 
L 19.671875 43.015625 
L 55.515625 43.015625 
L 55.515625 72.90625 
L 65.375 72.90625 
L 65.375 0 
L 55.515625 0 
L 55.515625 34.71875 
L 19.671875 34.71875 
L 19.671875 0 
L 9.8125 0 
z
" id="DejaVuSans-72"/>
        <path d="M 9.8125 72.90625 
L 23.09375 72.90625 
L 55.421875 11.921875 
L 55.421875 72.90625 
L 64.984375 72.90625 
L 64.984375 0 
L 51.703125 0 
L 19.390625 60.984375 
L 19.390625 0 
L 9.8125 0 
z
" id="DejaVuSans-78"/>
        <path d="M 53.515625 70.515625 
L 53.515625 60.890625 
Q 47.90625 63.578125 42.921875 64.890625 
Q 37.9375 66.21875 33.296875 66.21875 
Q 25.25 66.21875 20.875 63.09375 
Q 16.5 59.96875 16.5 54.203125 
Q 16.5 49.359375 19.40625 46.890625 
Q 22.3125 44.4375 30.421875 42.921875 
L 36.375 41.703125 
Q 47.40625 39.59375 52.65625 34.296875 
Q 57.90625 29 57.90625 20.125 
Q 57.90625 9.515625 50.796875 4.046875 
Q 43.703125 -1.421875 29.984375 -1.421875 
Q 24.8125 -1.421875 18.96875 -0.25 
Q 13.140625 0.921875 6.890625 3.21875 
L 6.890625 13.375 
Q 12.890625 10.015625 18.65625 8.296875 
Q 24.421875 6.59375 29.984375 6.59375 
Q 38.421875 6.59375 43.015625 9.90625 
Q 47.609375 13.234375 47.609375 19.390625 
Q 47.609375 24.75 44.3125 27.78125 
Q 41.015625 30.8125 33.5 32.328125 
L 27.484375 33.5 
Q 16.453125 35.6875 11.515625 40.375 
Q 6.59375 45.0625 6.59375 53.421875 
Q 6.59375 63.09375 13.40625 68.65625 
Q 20.21875 74.21875 32.171875 74.21875 
Q 37.3125 74.21875 42.625 73.28125 
Q 47.953125 72.359375 53.515625 70.515625 
z
" id="DejaVuSans-83"/>
        <path d="M 64.40625 67.28125 
L 64.40625 56.890625 
Q 59.421875 61.53125 53.78125 63.8125 
Q 48.140625 66.109375 41.796875 66.109375 
Q 29.296875 66.109375 22.65625 58.46875 
Q 16.015625 50.828125 16.015625 36.375 
Q 16.015625 21.96875 22.65625 14.328125 
Q 29.296875 6.6875 41.796875 6.6875 
Q 48.140625 6.6875 53.78125 8.984375 
Q 59.421875 11.28125 64.40625 15.921875 
L 64.40625 5.609375 
Q 59.234375 2.09375 53.4375 0.328125 
Q 47.65625 -1.421875 41.21875 -1.421875 
Q 24.65625 -1.421875 15.125 8.703125 
Q 5.609375 18.84375 5.609375 36.375 
Q 5.609375 53.953125 15.125 64.078125 
Q 24.65625 74.21875 41.21875 74.21875 
Q 47.75 74.21875 53.53125 72.484375 
Q 59.328125 70.75 64.40625 67.28125 
z
" id="DejaVuSans-67"/>
       </defs>
       <use xlink:href="#DejaVuSans-72"/>
       <use x="75.195312" xlink:href="#DejaVuSans-78"/>
       <use x="150" xlink:href="#DejaVuSans-83"/>
       <use x="213.476562" xlink:href="#DejaVuSans-67"/>
      </g>
     </g>
    </g>
    <g id="xtick_2">
     <g id="line2d_3">
      <path clip-path="url(#p3e1bead61b)" d="M 80.480254 228.96 
L 80.480254 7.2 
" style="fill:none;stroke:#e5e5e5;stroke-width:0.8;"/>
     </g>
     <g id="line2d_4">
      <path d="M 80.480254 228.96 
" style="fill:none;stroke:#333333;stroke-width:1.5;"/>
      <g>
       <use style="fill:#333333;stroke:#000000;" x="80.480254" xlink:href="#m6abb422c78" y="228.96"/>
      </g>
     </g>
     <g id="text_2">
      <!-- LUSC -->
      <g style="fill:#4d4d4d;" transform="translate(74.194516 254.643697)rotate(-45)scale(0.088 -0.088)">
       <defs>
        <path d="M 9.8125 72.90625 
L 19.671875 72.90625 
L 19.671875 8.296875 
L 55.171875 8.296875 
L 55.171875 0 
L 9.8125 0 
z
" id="DejaVuSans-76"/>
        <path d="M 8.6875 72.90625 
L 18.609375 72.90625 
L 18.609375 28.609375 
Q 18.609375 16.890625 22.84375 11.734375 
Q 27.09375 6.59375 36.625 6.59375 
Q 46.09375 6.59375 50.34375 11.734375 
Q 54.59375 16.890625 54.59375 28.609375 
L 54.59375 72.90625 
L 64.5 72.90625 
L 64.5 27.390625 
Q 64.5 13.140625 57.4375 5.859375 
Q 50.390625 -1.421875 36.625 -1.421875 
Q 22.796875 -1.421875 15.734375 5.859375 
Q 8.6875 13.140625 8.6875 27.390625 
z
" id="DejaVuSans-85"/>
       </defs>
       <use xlink:href="#DejaVuSans-76"/>
       <use x="50.712891" xlink:href="#DejaVuSans-85"/>
       <use x="123.90625" xlink:href="#DejaVuSans-83"/>
       <use x="187.382812" xlink:href="#DejaVuSans-67"/>
      </g>
     </g>
    </g>
    <g id="xtick_3">
     <g id="line2d_5">
      <path clip-path="url(#p3e1bead61b)" d="M 101.536857 228.96 
L 101.536857 7.2 
" style="fill:none;stroke:#e5e5e5;stroke-width:0.8;"/>
     </g>
     <g id="line2d_6">
      <path d="M 101.536857 228.96 
" style="fill:none;stroke:#333333;stroke-width:1.5;"/>
      <g>
       <use style="fill:#333333;stroke:#000000;" x="101.536857" xlink:href="#m6abb422c78" y="228.96"/>
      </g>
     </g>
     <g id="text_3">
      <!-- BRCA -->
      <g style="fill:#4d4d4d;" transform="translate(94.812139 255.521658)rotate(-45)scale(0.088 -0.088)">
       <defs>
        <path d="M 19.671875 34.8125 
L 19.671875 8.109375 
L 35.5 8.109375 
Q 43.453125 8.109375 47.28125 11.40625 
Q 51.125 14.703125 51.125 21.484375 
Q 51.125 28.328125 47.28125 31.5625 
Q 43.453125 34.8125 35.5 34.8125 
z
M 19.671875 64.796875 
L 19.671875 42.828125 
L 34.28125 42.828125 
Q 41.5 42.828125 45.03125 45.53125 
Q 48.578125 48.25 48.578125 53.8125 
Q 48.578125 59.328125 45.03125 62.0625 
Q 41.5 64.796875 34.28125 64.796875 
z
M 9.8125 72.90625 
L 35.015625 72.90625 
Q 46.296875 72.90625 52.390625 68.21875 
Q 58.5 63.53125 58.5 54.890625 
Q 58.5 48.1875 55.375 44.234375 
Q 52.25 40.28125 46.1875 39.3125 
Q 53.46875 37.75 57.5 32.78125 
Q 61.53125 27.828125 61.53125 20.40625 
Q 61.53125 10.640625 54.890625 5.3125 
Q 48.25 0 35.984375 0 
L 9.8125 0 
z
" id="DejaVuSans-66"/>
        <path d="M 44.390625 34.1875 
Q 47.5625 33.109375 50.5625 29.59375 
Q 53.5625 26.078125 56.59375 19.921875 
L 66.609375 0 
L 56 0 
L 46.6875 18.703125 
Q 43.0625 26.03125 39.671875 28.421875 
Q 36.28125 30.8125 30.421875 30.8125 
L 19.671875 30.8125 
L 19.671875 0 
L 9.8125 0 
L 9.8125 72.90625 
L 32.078125 72.90625 
Q 44.578125 72.90625 50.734375 67.671875 
Q 56.890625 62.453125 56.890625 51.90625 
Q 56.890625 45.015625 53.6875 40.46875 
Q 50.484375 35.9375 44.390625 34.1875 
z
M 19.671875 64.796875 
L 19.671875 38.921875 
L 32.078125 38.921875 
Q 39.203125 38.921875 42.84375 42.21875 
Q 46.484375 45.515625 46.484375 51.90625 
Q 46.484375 58.296875 42.84375 61.546875 
Q 39.203125 64.796875 32.078125 64.796875 
z
" id="DejaVuSans-82"/>
        <path d="M 34.1875 63.1875 
L 20.796875 26.90625 
L 47.609375 26.90625 
z
M 28.609375 72.90625 
L 39.796875 72.90625 
L 67.578125 0 
L 57.328125 0 
L 50.6875 18.703125 
L 17.828125 18.703125 
L 11.1875 0 
L 0.78125 0 
z
" id="DejaVuSans-65"/>
       </defs>
       <use xlink:href="#DejaVuSans-66"/>
       <use x="68.603516" xlink:href="#DejaVuSans-82"/>
       <use x="133.085938" xlink:href="#DejaVuSans-67"/>
       <use x="202.910156" xlink:href="#DejaVuSans-65"/>
      </g>
     </g>
    </g>
    <g id="xtick_4">
     <g id="line2d_7">
      <path clip-path="url(#p3e1bead61b)" d="M 122.593461 228.96 
L 122.593461 7.2 
" style="fill:none;stroke:#e5e5e5;stroke-width:0.8;"/>
     </g>
     <g id="line2d_8">
      <path d="M 122.593461 228.96 
" style="fill:none;stroke:#333333;stroke-width:1.5;"/>
      <g>
       <use style="fill:#333333;stroke:#000000;" x="122.593461" xlink:href="#m6abb422c78" y="228.96"/>
      </g>
     </g>
     <g id="text_4">
      <!-- STAD -->
      <g style="fill:#4d4d4d;" transform="translate(116.15216 254.954824)rotate(-45)scale(0.088 -0.088)">
       <defs>
        <path d="M -0.296875 72.90625 
L 61.375 72.90625 
L 61.375 64.59375 
L 35.5 64.59375 
L 35.5 0 
L 25.59375 0 
L 25.59375 64.59375 
L -0.296875 64.59375 
z
" id="DejaVuSans-84"/>
        <path d="M 19.671875 64.796875 
L 19.671875 8.109375 
L 31.59375 8.109375 
Q 46.6875 8.109375 53.6875 14.9375 
Q 60.6875 21.78125 60.6875 36.53125 
Q 60.6875 51.171875 53.6875 57.984375 
Q 46.6875 64.796875 31.59375 64.796875 
z
M 9.8125 72.90625 
L 30.078125 72.90625 
Q 51.265625 72.90625 61.171875 64.09375 
Q 71.09375 55.28125 71.09375 36.53125 
Q 71.09375 17.671875 61.125 8.828125 
Q 51.171875 0 30.078125 0 
L 9.8125 0 
z
" id="DejaVuSans-68"/>
       </defs>
       <use xlink:href="#DejaVuSans-83"/>
       <use x="63.476562" xlink:href="#DejaVuSans-84"/>
       <use x="116.810547" xlink:href="#DejaVuSans-65"/>
       <use x="185.21875" xlink:href="#DejaVuSans-68"/>
      </g>
     </g>
    </g>
    <g id="xtick_5">
     <g id="line2d_9">
      <path clip-path="url(#p3e1bead61b)" d="M 143.650065 228.96 
L 143.650065 7.2 
" style="fill:none;stroke:#e5e5e5;stroke-width:0.8;"/>
     </g>
     <g id="line2d_10">
      <path d="M 143.650065 228.96 
" style="fill:none;stroke:#333333;stroke-width:1.5;"/>
      <g>
       <use style="fill:#333333;stroke:#000000;" x="143.650065" xlink:href="#m6abb422c78" y="228.96"/>
      </g>
     </g>
     <g id="text_5">
      <!-- COAD -->
      <g style="fill:#4d4d4d;" transform="translate(136.275869 256.820613)rotate(-45)scale(0.088 -0.088)">
       <defs>
        <path d="M 39.40625 66.21875 
Q 28.65625 66.21875 22.328125 58.203125 
Q 16.015625 50.203125 16.015625 36.375 
Q 16.015625 22.609375 22.328125 14.59375 
Q 28.65625 6.59375 39.40625 6.59375 
Q 50.140625 6.59375 56.421875 14.59375 
Q 62.703125 22.609375 62.703125 36.375 
Q 62.703125 50.203125 56.421875 58.203125 
Q 50.140625 66.21875 39.40625 66.21875 
z
M 39.40625 74.21875 
Q 54.734375 74.21875 63.90625 63.9375 
Q 73.09375 53.65625 73.09375 36.375 
Q 73.09375 19.140625 63.90625 8.859375 
Q 54.734375 -1.421875 39.40625 -1.421875 
Q 24.03125 -1.421875 14.8125 8.828125 
Q 5.609375 19.09375 5.609375 36.375 
Q 5.609375 53.65625 14.8125 63.9375 
Q 24.03125 74.21875 39.40625 74.21875 
z
" id="DejaVuSans-79"/>
       </defs>
       <use xlink:href="#DejaVuSans-67"/>
       <use x="69.824219" xlink:href="#DejaVuSans-79"/>
       <use x="146.785156" xlink:href="#DejaVuSans-65"/>
       <use x="215.193359" xlink:href="#DejaVuSans-68"/>
      </g>
     </g>
    </g>
    <g id="xtick_6">
     <g id="line2d_11">
      <path clip-path="url(#p3e1bead61b)" d="M 164.706669 228.96 
L 164.706669 7.2 
" style="fill:none;stroke:#e5e5e5;stroke-width:0.8;"/>
     </g>
     <g id="line2d_12">
      <path d="M 164.706669 228.96 
" style="fill:none;stroke:#333333;stroke-width:1.5;"/>
      <g>
       <use style="fill:#333333;stroke:#000000;" x="164.706669" xlink:href="#m6abb422c78" y="228.96"/>
      </g>
     </g>
     <g id="text_6">
      <!-- BLCA -->
      <g style="fill:#4d4d4d;" transform="translate(158.254673 254.976214)rotate(-45)scale(0.088 -0.088)">
       <use xlink:href="#DejaVuSans-66"/>
       <use x="68.603516" xlink:href="#DejaVuSans-76"/>
       <use x="124.316406" xlink:href="#DejaVuSans-67"/>
       <use x="194.140625" xlink:href="#DejaVuSans-65"/>
      </g>
     </g>
    </g>
    <g id="xtick_7">
     <g id="line2d_13">
      <path clip-path="url(#p3e1bead61b)" d="M 185.763272 228.96 
L 185.763272 7.2 
" style="fill:none;stroke:#e5e5e5;stroke-width:0.8;"/>
     </g>
     <g id="line2d_14">
      <path d="M 185.763272 228.96 
" style="fill:none;stroke:#333333;stroke-width:1.5;"/>
      <g>
       <use style="fill:#333333;stroke:#000000;" x="185.763272" xlink:href="#m6abb422c78" y="228.96"/>
      </g>
     </g>
     <g id="text_7">
      <!-- LUAD -->
      <g style="fill:#4d4d4d;" transform="translate(179.101266 255.396235)rotate(-45)scale(0.088 -0.088)">
       <use xlink:href="#DejaVuSans-76"/>
       <use x="50.712891" xlink:href="#DejaVuSans-85"/>
       <use x="123.90625" xlink:href="#DejaVuSans-65"/>
       <use x="192.314453" xlink:href="#DejaVuSans-68"/>
      </g>
     </g>
    </g>
    <g id="xtick_8">
     <g id="line2d_15">
      <path clip-path="url(#p3e1bead61b)" d="M 206.819876 228.96 
L 206.819876 7.2 
" style="fill:none;stroke:#e5e5e5;stroke-width:0.8;"/>
     </g>
     <g id="line2d_16">
      <path d="M 206.819876 228.96 
" style="fill:none;stroke:#333333;stroke-width:1.5;"/>
      <g>
       <use style="fill:#333333;stroke:#000000;" x="206.819876" xlink:href="#m6abb422c78" y="228.96"/>
      </g>
     </g>
     <g id="text_8">
      <!-- KIRC -->
      <g style="fill:#4d4d4d;" transform="translate(201.399947 252.912081)rotate(-45)scale(0.088 -0.088)">
       <defs>
        <path d="M 9.8125 72.90625 
L 19.671875 72.90625 
L 19.671875 42.09375 
L 52.390625 72.90625 
L 65.09375 72.90625 
L 28.90625 38.921875 
L 67.671875 0 
L 54.6875 0 
L 19.671875 35.109375 
L 19.671875 0 
L 9.8125 0 
z
" id="DejaVuSans-75"/>
        <path d="M 9.8125 72.90625 
L 19.671875 72.90625 
L 19.671875 0 
L 9.8125 0 
z
" id="DejaVuSans-73"/>
       </defs>
       <use xlink:href="#DejaVuSans-75"/>
       <use x="65.576172" xlink:href="#DejaVuSans-73"/>
       <use x="95.068359" xlink:href="#DejaVuSans-82"/>
       <use x="159.550781" xlink:href="#DejaVuSans-67"/>
      </g>
     </g>
    </g>
    <g id="xtick_9">
     <g id="line2d_17">
      <path clip-path="url(#p3e1bead61b)" d="M 227.87648 228.96 
L 227.87648 7.2 
" style="fill:none;stroke:#e5e5e5;stroke-width:0.8;"/>
     </g>
     <g id="line2d_18">
      <path d="M 227.87648 228.96 
" style="fill:none;stroke:#333333;stroke-width:1.5;"/>
      <g>
       <use style="fill:#333333;stroke:#000000;" x="227.87648" xlink:href="#m6abb422c78" y="228.96"/>
      </g>
     </g>
     <g id="text_9">
      <!-- CHOL -->
      <g style="fill:#4d4d4d;" transform="translate(220.898485 256.028212)rotate(-45)scale(0.088 -0.088)">
       <use xlink:href="#DejaVuSans-67"/>
       <use x="69.824219" xlink:href="#DejaVuSans-72"/>
       <use x="145.019531" xlink:href="#DejaVuSans-79"/>
       <use x="223.730469" xlink:href="#DejaVuSans-76"/>
      </g>
     </g>
    </g>
    <g id="xtick_10">
     <g id="line2d_19">
      <path clip-path="url(#p3e1bead61b)" d="M 248.933084 228.96 
L 248.933084 7.2 
" style="fill:none;stroke:#e5e5e5;stroke-width:0.8;"/>
     </g>
     <g id="line2d_20">
      <path d="M 248.933084 228.96 
" style="fill:none;stroke:#333333;stroke-width:1.5;"/>
      <g>
       <use style="fill:#333333;stroke:#000000;" x="248.933084" xlink:href="#m6abb422c78" y="228.96"/>
      </g>
     </g>
     <g id="text_10">
      <!-- PRAD -->
      <g style="fill:#4d4d4d;" transform="translate(242.212741 255.512908)rotate(-45)scale(0.088 -0.088)">
       <defs>
        <path d="M 19.671875 64.796875 
L 19.671875 37.40625 
L 32.078125 37.40625 
Q 38.96875 37.40625 42.71875 40.96875 
Q 46.484375 44.53125 46.484375 51.125 
Q 46.484375 57.671875 42.71875 61.234375 
Q 38.96875 64.796875 32.078125 64.796875 
z
M 9.8125 72.90625 
L 32.078125 72.90625 
Q 44.34375 72.90625 50.609375 67.359375 
Q 56.890625 61.8125 56.890625 51.125 
Q 56.890625 40.328125 50.609375 34.8125 
Q 44.34375 29.296875 32.078125 29.296875 
L 19.671875 29.296875 
L 19.671875 0 
L 9.8125 0 
z
" id="DejaVuSans-80"/>
       </defs>
       <use xlink:href="#DejaVuSans-80"/>
       <use x="60.302734" xlink:href="#DejaVuSans-82"/>
       <use x="125.785156" xlink:href="#DejaVuSans-65"/>
       <use x="194.193359" xlink:href="#DejaVuSans-68"/>
      </g>
     </g>
    </g>
    <g id="xtick_11">
     <g id="line2d_21">
      <path clip-path="url(#p3e1bead61b)" d="M 269.989688 228.96 
L 269.989688 7.2 
" style="fill:none;stroke:#e5e5e5;stroke-width:0.8;"/>
     </g>
     <g id="line2d_22">
      <path d="M 269.989688 228.96 
" style="fill:none;stroke:#333333;stroke-width:1.5;"/>
      <g>
       <use style="fill:#333333;stroke:#000000;" x="269.989688" xlink:href="#m6abb422c78" y="228.96"/>
      </g>
     </g>
     <g id="text_11">
      <!-- KICH -->
      <g style="fill:#4d4d4d;" transform="translate(264.236269 253.579059)rotate(-45)scale(0.088 -0.088)">
       <use xlink:href="#DejaVuSans-75"/>
       <use x="65.576172" xlink:href="#DejaVuSans-73"/>
       <use x="95.068359" xlink:href="#DejaVuSans-67"/>
       <use x="164.892578" xlink:href="#DejaVuSans-72"/>
      </g>
     </g>
    </g>
    <g id="xtick_12">
     <g id="line2d_23">
      <path clip-path="url(#p3e1bead61b)" d="M 291.046291 228.96 
L 291.046291 7.2 
" style="fill:none;stroke:#e5e5e5;stroke-width:0.8;"/>
     </g>
     <g id="line2d_24">
      <path d="M 291.046291 228.96 
" style="fill:none;stroke:#333333;stroke-width:1.5;"/>
      <g>
       <use style="fill:#333333;stroke:#000000;" x="291.046291" xlink:href="#m6abb422c78" y="228.96"/>
      </g>
     </g>
     <g id="text_12">
      <!-- ESCA -->
      <g style="fill:#4d4d4d;" transform="translate(284.521375 255.122054)rotate(-45)scale(0.088 -0.088)">
       <defs>
        <path d="M 9.8125 72.90625 
L 55.90625 72.90625 
L 55.90625 64.59375 
L 19.671875 64.59375 
L 19.671875 43.015625 
L 54.390625 43.015625 
L 54.390625 34.71875 
L 19.671875 34.71875 
L 19.671875 8.296875 
L 56.78125 8.296875 
L 56.78125 0 
L 9.8125 0 
z
" id="DejaVuSans-69"/>
       </defs>
       <use xlink:href="#DejaVuSans-69"/>
       <use x="63.183594" xlink:href="#DejaVuSans-83"/>
       <use x="126.660156" xlink:href="#DejaVuSans-67"/>
       <use x="196.484375" xlink:href="#DejaVuSans-65"/>
      </g>
     </g>
    </g>
    <g id="xtick_13">
     <g id="line2d_25">
      <path clip-path="url(#p3e1bead61b)" d="M 312.102895 228.96 
L 312.102895 7.2 
" style="fill:none;stroke:#e5e5e5;stroke-width:0.8;"/>
     </g>
     <g id="line2d_26">
      <path d="M 312.102895 228.96 
" style="fill:none;stroke:#333333;stroke-width:1.5;"/>
      <g>
       <use style="fill:#333333;stroke:#000000;" x="312.102895" xlink:href="#m6abb422c78" y="228.96"/>
      </g>
     </g>
     <g id="text_13">
      <!-- KIRP -->
      <g style="fill:#4d4d4d;" transform="translate(306.823945 252.630122)rotate(-45)scale(0.088 -0.088)">
       <use xlink:href="#DejaVuSans-75"/>
       <use x="65.576172" xlink:href="#DejaVuSans-73"/>
       <use x="95.068359" xlink:href="#DejaVuSans-82"/>
       <use x="164.550781" xlink:href="#DejaVuSans-80"/>
      </g>
     </g>
    </g>
    <g id="xtick_14">
     <g id="line2d_27">
      <path clip-path="url(#p3e1bead61b)" d="M 333.159499 228.96 
L 333.159499 7.2 
" style="fill:none;stroke:#e5e5e5;stroke-width:0.8;"/>
     </g>
     <g id="line2d_28">
      <path d="M 333.159499 228.96 
" style="fill:none;stroke:#333333;stroke-width:1.5;"/>
      <g>
       <use style="fill:#333333;stroke:#000000;" x="333.159499" xlink:href="#m6abb422c78" y="228.96"/>
      </g>
     </g>
     <g id="text_14">
      <!-- READ -->
      <g style="fill:#4d4d4d;" transform="translate(326.22477 255.94168)rotate(-45)scale(0.088 -0.088)">
       <use xlink:href="#DejaVuSans-82"/>
       <use x="69.482422" xlink:href="#DejaVuSans-69"/>
       <use x="132.666016" xlink:href="#DejaVuSans-65"/>
       <use x="201.074219" xlink:href="#DejaVuSans-68"/>
      </g>
     </g>
    </g>
    <g id="xtick_15">
     <g id="line2d_29">
      <path clip-path="url(#p3e1bead61b)" d="M 354.216103 228.96 
L 354.216103 7.2 
" style="fill:none;stroke:#e5e5e5;stroke-width:0.8;"/>
     </g>
     <g id="line2d_30">
      <path d="M 354.216103 228.96 
" style="fill:none;stroke:#333333;stroke-width:1.5;"/>
      <g>
       <use style="fill:#333333;stroke:#000000;" x="354.216103" xlink:href="#m6abb422c78" y="228.96"/>
      </g>
     </g>
     <g id="text_15">
      <!-- GBM -->
      <g style="fill:#4d4d4d;" transform="translate(348.703321 253.097784)rotate(-45)scale(0.088 -0.088)">
       <defs>
        <path d="M 59.515625 10.40625 
L 59.515625 29.984375 
L 43.40625 29.984375 
L 43.40625 38.09375 
L 69.28125 38.09375 
L 69.28125 6.78125 
Q 63.578125 2.734375 56.6875 0.65625 
Q 49.8125 -1.421875 42 -1.421875 
Q 24.90625 -1.421875 15.25 8.5625 
Q 5.609375 18.5625 5.609375 36.375 
Q 5.609375 54.25 15.25 64.234375 
Q 24.90625 74.21875 42 74.21875 
Q 49.125 74.21875 55.546875 72.453125 
Q 61.96875 70.703125 67.390625 67.28125 
L 67.390625 56.78125 
Q 61.921875 61.421875 55.765625 63.765625 
Q 49.609375 66.109375 42.828125 66.109375 
Q 29.4375 66.109375 22.71875 58.640625 
Q 16.015625 51.171875 16.015625 36.375 
Q 16.015625 21.625 22.71875 14.15625 
Q 29.4375 6.6875 42.828125 6.6875 
Q 48.046875 6.6875 52.140625 7.59375 
Q 56.25 8.5 59.515625 10.40625 
z
" id="DejaVuSans-71"/>
        <path d="M 9.8125 72.90625 
L 24.515625 72.90625 
L 43.109375 23.296875 
L 61.8125 72.90625 
L 76.515625 72.90625 
L 76.515625 0 
L 66.890625 0 
L 66.890625 64.015625 
L 48.09375 14.015625 
L 38.1875 14.015625 
L 19.390625 64.015625 
L 19.390625 0 
L 9.8125 0 
z
" id="DejaVuSans-77"/>
       </defs>
       <use xlink:href="#DejaVuSans-71"/>
       <use x="77.490234" xlink:href="#DejaVuSans-66"/>
       <use x="146.09375" xlink:href="#DejaVuSans-77"/>
      </g>
     </g>
    </g>
    <g id="xtick_16">
     <g id="line2d_31">
      <path clip-path="url(#p3e1bead61b)" d="M 375.272706 228.96 
L 375.272706 7.2 
" style="fill:none;stroke:#e5e5e5;stroke-width:0.8;"/>
     </g>
     <g id="line2d_32">
      <path d="M 375.272706 228.96 
" style="fill:none;stroke:#333333;stroke-width:1.5;"/>
      <g>
       <use style="fill:#333333;stroke:#000000;" x="375.272706" xlink:href="#m6abb422c78" y="228.96"/>
      </g>
     </g>
     <g id="text_16">
      <!-- LIHC -->
      <g style="fill:#4d4d4d;" transform="translate(369.82604 252.965555)rotate(-45)scale(0.088 -0.088)">
       <use xlink:href="#DejaVuSans-76"/>
       <use x="55.712891" xlink:href="#DejaVuSans-73"/>
       <use x="85.205078" xlink:href="#DejaVuSans-72"/>
       <use x="160.400391" xlink:href="#DejaVuSans-67"/>
      </g>
     </g>
    </g>
    <g id="xtick_17">
     <g id="line2d_33">
      <path clip-path="url(#p3e1bead61b)" d="M 396.32931 228.96 
L 396.32931 7.2 
" style="fill:none;stroke:#e5e5e5;stroke-width:0.8;"/>
     </g>
     <g id="line2d_34">
      <path d="M 396.32931 228.96 
" style="fill:none;stroke:#333333;stroke-width:1.5;"/>
      <g>
       <use style="fill:#333333;stroke:#000000;" x="396.32931" xlink:href="#m6abb422c78" y="228.96"/>
      </g>
     </g>
     <g id="text_17">
      <!-- CESC -->
      <g style="fill:#4d4d4d;" transform="translate(389.760156 255.210531)rotate(-45)scale(0.088 -0.088)">
       <use xlink:href="#DejaVuSans-67"/>
       <use x="69.824219" xlink:href="#DejaVuSans-69"/>
       <use x="133.007812" xlink:href="#DejaVuSans-83"/>
       <use x="196.484375" xlink:href="#DejaVuSans-67"/>
      </g>
     </g>
    </g>
    <g id="xtick_18">
     <g id="line2d_35">
      <path clip-path="url(#p3e1bead61b)" d="M 417.385914 228.96 
L 417.385914 7.2 
" style="fill:none;stroke:#e5e5e5;stroke-width:0.8;"/>
     </g>
     <g id="line2d_36">
      <path d="M 417.385914 228.96 
" style="fill:none;stroke:#333333;stroke-width:1.5;"/>
      <g>
       <use style="fill:#333333;stroke:#000000;" x="417.385914" xlink:href="#m6abb422c78" y="228.96"/>
      </g>
     </g>
     <g id="text_18">
      <!-- PCPG -->
      <g style="fill:#4d4d4d;" transform="translate(410.76766 255.308731)rotate(-45)scale(0.088 -0.088)">
       <use xlink:href="#DejaVuSans-80"/>
       <use x="60.302734" xlink:href="#DejaVuSans-67"/>
       <use x="130.126953" xlink:href="#DejaVuSans-80"/>
       <use x="190.429688" xlink:href="#DejaVuSans-71"/>
      </g>
     </g>
    </g>
    <g id="xtick_19">
     <g id="line2d_37">
      <path clip-path="url(#p3e1bead61b)" d="M 438.442518 228.96 
L 438.442518 7.2 
" style="fill:none;stroke:#e5e5e5;stroke-width:0.8;"/>
     </g>
     <g id="line2d_38">
      <path d="M 438.442518 228.96 
" style="fill:none;stroke:#333333;stroke-width:1.5;"/>
      <g>
       <use style="fill:#333333;stroke:#000000;" x="438.442518" xlink:href="#m6abb422c78" y="228.96"/>
      </g>
     </g>
     <g id="text_19">
      <!-- SARC -->
      <g style="fill:#4d4d4d;" transform="translate(431.818916 255.319426)rotate(-45)scale(0.088 -0.088)">
       <use xlink:href="#DejaVuSans-83"/>
       <use x="65.351562" xlink:href="#DejaVuSans-65"/>
       <use x="133.759766" xlink:href="#DejaVuSans-82"/>
       <use x="198.242188" xlink:href="#DejaVuSans-67"/>
      </g>
     </g>
    </g>
    <g id="xtick_20">
     <g id="line2d_39">
      <path clip-path="url(#p3e1bead61b)" d="M 459.499121 228.96 
L 459.499121 7.2 
" style="fill:none;stroke:#e5e5e5;stroke-width:0.8;"/>
     </g>
     <g id="line2d_40">
      <path d="M 459.499121 228.96 
" style="fill:none;stroke:#333333;stroke-width:1.5;"/>
      <g>
       <use style="fill:#333333;stroke:#000000;" x="459.499121" xlink:href="#m6abb422c78" y="228.96"/>
      </g>
     </g>
     <g id="text_20">
      <!-- SKCM -->
      <g style="fill:#4d4d4d;" transform="translate(452.514807 256.040851)rotate(-45)scale(0.088 -0.088)">
       <use xlink:href="#DejaVuSans-83"/>
       <use x="63.476562" xlink:href="#DejaVuSans-75"/>
       <use x="123.552734" xlink:href="#DejaVuSans-67"/>
       <use x="193.376953" xlink:href="#DejaVuSans-77"/>
      </g>
     </g>
    </g>
    <g id="xtick_21">
     <g id="line2d_41">
      <path clip-path="url(#p3e1bead61b)" d="M 480.555725 228.96 
L 480.555725 7.2 
" style="fill:none;stroke:#e5e5e5;stroke-width:0.8;"/>
     </g>
     <g id="line2d_42">
      <path d="M 480.555725 228.96 
" style="fill:none;stroke:#333333;stroke-width:1.5;"/>
      <g>
       <use style="fill:#333333;stroke:#000000;" x="480.555725" xlink:href="#m6abb422c78" y="228.96"/>
      </g>
     </g>
     <g id="text_21">
      <!-- PAAD -->
      <g style="fill:#4d4d4d;" transform="translate(473.857259 255.469155)rotate(-45)scale(0.088 -0.088)">
       <use xlink:href="#DejaVuSans-80"/>
       <use x="53.927734" xlink:href="#DejaVuSans-65"/>
       <use x="125.085938" xlink:href="#DejaVuSans-65"/>
       <use x="193.494141" xlink:href="#DejaVuSans-68"/>
      </g>
     </g>
    </g>
   </g>
   <g id="matplotlib.axis_2">
    <g id="ytick_1">
     <g id="line2d_43">
      <path clip-path="url(#p3e1bead61b)" d="M 46.789687 218.320594 
L 493.189687 218.320594 
" style="fill:none;stroke:#e5e5e5;stroke-width:0.8;"/>
     </g>
     <g id="line2d_44">
      <path d="M 46.789687 218.320594 
" style="fill:none;stroke:#333333;stroke-width:1.5;"/>
      <defs>
       <path d="M 0 0 
L -2.75 0 
" id="m7c5e0acbb0" style="stroke:#000000;"/>
      </defs>
      <g>
       <use style="fill:#333333;stroke:#000000;" x="46.789687" xlink:href="#m7c5e0acbb0" y="218.320594"/>
      </g>
     </g>
     <g id="text_22">
      <!-- 0 -->
      <g style="fill:#4d4d4d;" transform="translate(36.240687 220.748844)scale(0.088 -0.088)">
       <defs>
        <path d="M 31.78125 66.40625 
Q 24.171875 66.40625 20.328125 58.90625 
Q 16.5 51.421875 16.5 36.375 
Q 16.5 21.390625 20.328125 13.890625 
Q 24.171875 6.390625 31.78125 6.390625 
Q 39.453125 6.390625 43.28125 13.890625 
Q 47.125 21.390625 47.125 36.375 
Q 47.125 51.421875 43.28125 58.90625 
Q 39.453125 66.40625 31.78125 66.40625 
z
M 31.78125 74.21875 
Q 44.046875 74.21875 50.515625 64.515625 
Q 56.984375 54.828125 56.984375 36.375 
Q 56.984375 17.96875 50.515625 8.265625 
Q 44.046875 -1.421875 31.78125 -1.421875 
Q 19.53125 -1.421875 13.0625 8.265625 
Q 6.59375 17.96875 6.59375 36.375 
Q 6.59375 54.828125 13.0625 64.515625 
Q 19.53125 74.21875 31.78125 74.21875 
z
" id="DejaVuSans-48"/>
       </defs>
       <use xlink:href="#DejaVuSans-48"/>
      </g>
     </g>
    </g>
    <g id="ytick_2">
     <g id="line2d_45">
      <path clip-path="url(#p3e1bead61b)" d="M 46.789687 160.61463 
L 493.189687 160.61463 
" style="fill:none;stroke:#e5e5e5;stroke-width:0.8;"/>
     </g>
     <g id="line2d_46">
      <path d="M 46.789687 160.61463 
" style="fill:none;stroke:#333333;stroke-width:1.5;"/>
      <g>
       <use style="fill:#333333;stroke:#000000;" x="46.789687" xlink:href="#m7c5e0acbb0" y="160.61463"/>
      </g>
     </g>
     <g id="text_23">
      <!-- 0.25 -->
      <g style="fill:#4d4d4d;" transform="translate(22.245937 163.04288)scale(0.088 -0.088)">
       <defs>
        <path d="M 10.6875 12.40625 
L 21 12.40625 
L 21 0 
L 10.6875 0 
z
" id="DejaVuSans-46"/>
        <path d="M 19.1875 8.296875 
L 53.609375 8.296875 
L 53.609375 0 
L 7.328125 0 
L 7.328125 8.296875 
Q 12.9375 14.109375 22.625 23.890625 
Q 32.328125 33.6875 34.8125 36.53125 
Q 39.546875 41.84375 41.421875 45.53125 
Q 43.3125 49.21875 43.3125 52.78125 
Q 43.3125 58.59375 39.234375 62.25 
Q 35.15625 65.921875 28.609375 65.921875 
Q 23.96875 65.921875 18.8125 64.3125 
Q 13.671875 62.703125 7.8125 59.421875 
L 7.8125 69.390625 
Q 13.765625 71.78125 18.9375 73 
Q 24.125 74.21875 28.421875 74.21875 
Q 39.75 74.21875 46.484375 68.546875 
Q 53.21875 62.890625 53.21875 53.421875 
Q 53.21875 48.921875 51.53125 44.890625 
Q 49.859375 40.875 45.40625 35.40625 
Q 44.1875 33.984375 37.640625 27.21875 
Q 31.109375 20.453125 19.1875 8.296875 
z
" id="DejaVuSans-50"/>
        <path d="M 10.796875 72.90625 
L 49.515625 72.90625 
L 49.515625 64.59375 
L 19.828125 64.59375 
L 19.828125 46.734375 
Q 21.96875 47.46875 24.109375 47.828125 
Q 26.265625 48.1875 28.421875 48.1875 
Q 40.625 48.1875 47.75 41.5 
Q 54.890625 34.8125 54.890625 23.390625 
Q 54.890625 11.625 47.5625 5.09375 
Q 40.234375 -1.421875 26.90625 -1.421875 
Q 22.3125 -1.421875 17.546875 -0.640625 
Q 12.796875 0.140625 7.71875 1.703125 
L 7.71875 11.625 
Q 12.109375 9.234375 16.796875 8.0625 
Q 21.484375 6.890625 26.703125 6.890625 
Q 35.15625 6.890625 40.078125 11.328125 
Q 45.015625 15.765625 45.015625 23.390625 
Q 45.015625 31 40.078125 35.4375 
Q 35.15625 39.890625 26.703125 39.890625 
Q 22.75 39.890625 18.8125 39.015625 
Q 14.890625 38.140625 10.796875 36.28125 
z
" id="DejaVuSans-53"/>
       </defs>
       <use xlink:href="#DejaVuSans-48"/>
       <use x="63.623047" xlink:href="#DejaVuSans-46"/>
       <use x="95.410156" xlink:href="#DejaVuSans-50"/>
       <use x="159.033203" xlink:href="#DejaVuSans-53"/>
      </g>
     </g>
    </g>
    <g id="ytick_3">
     <g id="line2d_47">
      <path clip-path="url(#p3e1bead61b)" d="M 46.789687 102.908666 
L 493.189687 102.908666 
" style="fill:none;stroke:#e5e5e5;stroke-width:0.8;"/>
     </g>
     <g id="line2d_48">
      <path d="M 46.789687 102.908666 
" style="fill:none;stroke:#333333;stroke-width:1.5;"/>
      <g>
       <use style="fill:#333333;stroke:#000000;" x="46.789687" xlink:href="#m7c5e0acbb0" y="102.908666"/>
      </g>
     </g>
     <g id="text_24">
      <!-- 0.50 -->
      <g style="fill:#4d4d4d;" transform="translate(22.245937 105.336916)scale(0.088 -0.088)">
       <use xlink:href="#DejaVuSans-48"/>
       <use x="63.623047" xlink:href="#DejaVuSans-46"/>
       <use x="95.410156" xlink:href="#DejaVuSans-53"/>
       <use x="159.033203" xlink:href="#DejaVuSans-48"/>
      </g>
     </g>
    </g>
    <g id="ytick_4">
     <g id="line2d_49">
      <path clip-path="url(#p3e1bead61b)" d="M 46.789687 45.202702 
L 493.189687 45.202702 
" style="fill:none;stroke:#e5e5e5;stroke-width:0.8;"/>
     </g>
     <g id="line2d_50">
      <path d="M 46.789687 45.202702 
" style="fill:none;stroke:#333333;stroke-width:1.5;"/>
      <g>
       <use style="fill:#333333;stroke:#000000;" x="46.789687" xlink:href="#m7c5e0acbb0" y="45.202702"/>
      </g>
     </g>
     <g id="text_25">
      <!-- 0.75 -->
      <g style="fill:#4d4d4d;" transform="translate(22.245937 47.630952)scale(0.088 -0.088)">
       <defs>
        <path d="M 8.203125 72.90625 
L 55.078125 72.90625 
L 55.078125 68.703125 
L 28.609375 0 
L 18.3125 0 
L 43.21875 64.59375 
L 8.203125 64.59375 
z
" id="DejaVuSans-55"/>
       </defs>
       <use xlink:href="#DejaVuSans-48"/>
       <use x="63.623047" xlink:href="#DejaVuSans-46"/>
       <use x="95.410156" xlink:href="#DejaVuSans-55"/>
       <use x="159.033203" xlink:href="#DejaVuSans-53"/>
      </g>
     </g>
    </g>
    <g id="ytick_5">
     <g id="line2d_51">
      <path clip-path="url(#p3e1bead61b)" d="M 46.789687 189.467612 
L 493.189687 189.467612 
" style="fill:none;stroke:#fafafa;"/>
     </g>
    </g>
    <g id="ytick_6">
     <g id="line2d_52">
      <path clip-path="url(#p3e1bead61b)" d="M 46.789687 131.761648 
L 493.189687 131.761648 
" style="fill:none;stroke:#fafafa;"/>
     </g>
    </g>
    <g id="ytick_7">
     <g id="line2d_53">
      <path clip-path="url(#p3e1bead61b)" d="M 46.789687 74.055684 
L 493.189687 74.055684 
" style="fill:none;stroke:#fafafa;"/>
     </g>
    </g>
    <g id="ytick_8">
     <g id="line2d_54">
      <path clip-path="url(#p3e1bead61b)" d="M 46.789687 16.34972 
L 493.189687 16.34972 
" style="fill:none;stroke:#fafafa;"/>
     </g>
    </g>
    <g id="text_26">
     <!-- Matthew's correlation -->
     <g transform="translate(15.558281 176.070078)rotate(-90)scale(0.11 -0.11)">
      <defs>
       <path d="M 34.28125 27.484375 
Q 23.390625 27.484375 19.1875 25 
Q 14.984375 22.515625 14.984375 16.5 
Q 14.984375 11.71875 18.140625 8.90625 
Q 21.296875 6.109375 26.703125 6.109375 
Q 34.1875 6.109375 38.703125 11.40625 
Q 43.21875 16.703125 43.21875 25.484375 
L 43.21875 27.484375 
z
M 52.203125 31.203125 
L 52.203125 0 
L 43.21875 0 
L 43.21875 8.296875 
Q 40.140625 3.328125 35.546875 0.953125 
Q 30.953125 -1.421875 24.3125 -1.421875 
Q 15.921875 -1.421875 10.953125 3.296875 
Q 6 8.015625 6 15.921875 
Q 6 25.140625 12.171875 29.828125 
Q 18.359375 34.515625 30.609375 34.515625 
L 43.21875 34.515625 
L 43.21875 35.40625 
Q 43.21875 41.609375 39.140625 45 
Q 35.0625 48.390625 27.6875 48.390625 
Q 23 48.390625 18.546875 47.265625 
Q 14.109375 46.140625 10.015625 43.890625 
L 10.015625 52.203125 
Q 14.9375 54.109375 19.578125 55.046875 
Q 24.21875 56 28.609375 56 
Q 40.484375 56 46.34375 49.84375 
Q 52.203125 43.703125 52.203125 31.203125 
z
" id="DejaVuSans-97"/>
       <path d="M 18.3125 70.21875 
L 18.3125 54.6875 
L 36.8125 54.6875 
L 36.8125 47.703125 
L 18.3125 47.703125 
L 18.3125 18.015625 
Q 18.3125 11.328125 20.140625 9.421875 
Q 21.96875 7.515625 27.59375 7.515625 
L 36.8125 7.515625 
L 36.8125 0 
L 27.59375 0 
Q 17.1875 0 13.234375 3.875 
Q 9.28125 7.765625 9.28125 18.015625 
L 9.28125 47.703125 
L 2.6875 47.703125 
L 2.6875 54.6875 
L 9.28125 54.6875 
L 9.28125 70.21875 
z
" id="DejaVuSans-116"/>
       <path d="M 54.890625 33.015625 
L 54.890625 0 
L 45.90625 0 
L 45.90625 32.71875 
Q 45.90625 40.484375 42.875 44.328125 
Q 39.84375 48.1875 33.796875 48.1875 
Q 26.515625 48.1875 22.3125 43.546875 
Q 18.109375 38.921875 18.109375 30.90625 
L 18.109375 0 
L 9.078125 0 
L 9.078125 75.984375 
L 18.109375 75.984375 
L 18.109375 46.1875 
Q 21.34375 51.125 25.703125 53.5625 
Q 30.078125 56 35.796875 56 
Q 45.21875 56 50.046875 50.171875 
Q 54.890625 44.34375 54.890625 33.015625 
z
" id="DejaVuSans-104"/>
       <path d="M 56.203125 29.59375 
L 56.203125 25.203125 
L 14.890625 25.203125 
Q 15.484375 15.921875 20.484375 11.0625 
Q 25.484375 6.203125 34.421875 6.203125 
Q 39.59375 6.203125 44.453125 7.46875 
Q 49.3125 8.734375 54.109375 11.28125 
L 54.109375 2.78125 
Q 49.265625 0.734375 44.1875 -0.34375 
Q 39.109375 -1.421875 33.890625 -1.421875 
Q 20.796875 -1.421875 13.15625 6.1875 
Q 5.515625 13.8125 5.515625 26.8125 
Q 5.515625 40.234375 12.765625 48.109375 
Q 20.015625 56 32.328125 56 
Q 43.359375 56 49.78125 48.890625 
Q 56.203125 41.796875 56.203125 29.59375 
z
M 47.21875 32.234375 
Q 47.125 39.59375 43.09375 43.984375 
Q 39.0625 48.390625 32.421875 48.390625 
Q 24.90625 48.390625 20.390625 44.140625 
Q 15.875 39.890625 15.1875 32.171875 
z
" id="DejaVuSans-101"/>
       <path d="M 4.203125 54.6875 
L 13.1875 54.6875 
L 24.421875 12.015625 
L 35.59375 54.6875 
L 46.1875 54.6875 
L 57.421875 12.015625 
L 68.609375 54.6875 
L 77.59375 54.6875 
L 63.28125 0 
L 52.6875 0 
L 40.921875 44.828125 
L 29.109375 0 
L 18.5 0 
z
" id="DejaVuSans-119"/>
       <path d="M 17.921875 72.90625 
L 17.921875 45.796875 
L 9.625 45.796875 
L 9.625 72.90625 
z
" id="DejaVuSans-39"/>
       <path d="M 44.28125 53.078125 
L 44.28125 44.578125 
Q 40.484375 46.53125 36.375 47.5 
Q 32.28125 48.484375 27.875 48.484375 
Q 21.1875 48.484375 17.84375 46.4375 
Q 14.5 44.390625 14.5 40.28125 
Q 14.5 37.15625 16.890625 35.375 
Q 19.28125 33.59375 26.515625 31.984375 
L 29.59375 31.296875 
Q 39.15625 29.25 43.1875 25.515625 
Q 47.21875 21.78125 47.21875 15.09375 
Q 47.21875 7.46875 41.1875 3.015625 
Q 35.15625 -1.421875 24.609375 -1.421875 
Q 20.21875 -1.421875 15.453125 -0.5625 
Q 10.6875 0.296875 5.421875 2 
L 5.421875 11.28125 
Q 10.40625 8.6875 15.234375 7.390625 
Q 20.0625 6.109375 24.8125 6.109375 
Q 31.15625 6.109375 34.5625 8.28125 
Q 37.984375 10.453125 37.984375 14.40625 
Q 37.984375 18.0625 35.515625 20.015625 
Q 33.0625 21.96875 24.703125 23.78125 
L 21.578125 24.515625 
Q 13.234375 26.265625 9.515625 29.90625 
Q 5.8125 33.546875 5.8125 39.890625 
Q 5.8125 47.609375 11.28125 51.796875 
Q 16.75 56 26.8125 56 
Q 31.78125 56 36.171875 55.265625 
Q 40.578125 54.546875 44.28125 53.078125 
z
" id="DejaVuSans-115"/>
       <path id="DejaVuSans-32"/>
       <path d="M 48.78125 52.59375 
L 48.78125 44.1875 
Q 44.96875 46.296875 41.140625 47.34375 
Q 37.3125 48.390625 33.40625 48.390625 
Q 24.65625 48.390625 19.8125 42.84375 
Q 14.984375 37.3125 14.984375 27.296875 
Q 14.984375 17.28125 19.8125 11.734375 
Q 24.65625 6.203125 33.40625 6.203125 
Q 37.3125 6.203125 41.140625 7.25 
Q 44.96875 8.296875 48.78125 10.40625 
L 48.78125 2.09375 
Q 45.015625 0.34375 40.984375 -0.53125 
Q 36.96875 -1.421875 32.421875 -1.421875 
Q 20.0625 -1.421875 12.78125 6.34375 
Q 5.515625 14.109375 5.515625 27.296875 
Q 5.515625 40.671875 12.859375 48.328125 
Q 20.21875 56 33.015625 56 
Q 37.15625 56 41.109375 55.140625 
Q 45.0625 54.296875 48.78125 52.59375 
z
" id="DejaVuSans-99"/>
       <path d="M 30.609375 48.390625 
Q 23.390625 48.390625 19.1875 42.75 
Q 14.984375 37.109375 14.984375 27.296875 
Q 14.984375 17.484375 19.15625 11.84375 
Q 23.34375 6.203125 30.609375 6.203125 
Q 37.796875 6.203125 41.984375 11.859375 
Q 46.1875 17.53125 46.1875 27.296875 
Q 46.1875 37.015625 41.984375 42.703125 
Q 37.796875 48.390625 30.609375 48.390625 
z
M 30.609375 56 
Q 42.328125 56 49.015625 48.375 
Q 55.71875 40.765625 55.71875 27.296875 
Q 55.71875 13.875 49.015625 6.21875 
Q 42.328125 -1.421875 30.609375 -1.421875 
Q 18.84375 -1.421875 12.171875 6.21875 
Q 5.515625 13.875 5.515625 27.296875 
Q 5.515625 40.765625 12.171875 48.375 
Q 18.84375 56 30.609375 56 
z
" id="DejaVuSans-111"/>
       <path d="M 41.109375 46.296875 
Q 39.59375 47.171875 37.8125 47.578125 
Q 36.03125 48 33.890625 48 
Q 26.265625 48 22.1875 43.046875 
Q 18.109375 38.09375 18.109375 28.8125 
L 18.109375 0 
L 9.078125 0 
L 9.078125 54.6875 
L 18.109375 54.6875 
L 18.109375 46.1875 
Q 20.953125 51.171875 25.484375 53.578125 
Q 30.03125 56 36.53125 56 
Q 37.453125 56 38.578125 55.875 
Q 39.703125 55.765625 41.0625 55.515625 
z
" id="DejaVuSans-114"/>
       <path d="M 9.421875 75.984375 
L 18.40625 75.984375 
L 18.40625 0 
L 9.421875 0 
z
" id="DejaVuSans-108"/>
       <path d="M 9.421875 54.6875 
L 18.40625 54.6875 
L 18.40625 0 
L 9.421875 0 
z
M 9.421875 75.984375 
L 18.40625 75.984375 
L 18.40625 64.59375 
L 9.421875 64.59375 
z
" id="DejaVuSans-105"/>
       <path d="M 54.890625 33.015625 
L 54.890625 0 
L 45.90625 0 
L 45.90625 32.71875 
Q 45.90625 40.484375 42.875 44.328125 
Q 39.84375 48.1875 33.796875 48.1875 
Q 26.515625 48.1875 22.3125 43.546875 
Q 18.109375 38.921875 18.109375 30.90625 
L 18.109375 0 
L 9.078125 0 
L 9.078125 54.6875 
L 18.109375 54.6875 
L 18.109375 46.1875 
Q 21.34375 51.125 25.703125 53.5625 
Q 30.078125 56 35.796875 56 
Q 45.21875 56 50.046875 50.171875 
Q 54.890625 44.34375 54.890625 33.015625 
z
" id="DejaVuSans-110"/>
      </defs>
      <use xlink:href="#DejaVuSans-77"/>
      <use x="86.279297" xlink:href="#DejaVuSans-97"/>
      <use x="147.558594" xlink:href="#DejaVuSans-116"/>
      <use x="186.767578" xlink:href="#DejaVuSans-116"/>
      <use x="225.976562" xlink:href="#DejaVuSans-104"/>
      <use x="289.355469" xlink:href="#DejaVuSans-101"/>
      <use x="350.878906" xlink:href="#DejaVuSans-119"/>
      <use x="432.666016" xlink:href="#DejaVuSans-39"/>
      <use x="460.15625" xlink:href="#DejaVuSans-115"/>
      <use x="512.255859" xlink:href="#DejaVuSans-32"/>
      <use x="544.042969" xlink:href="#DejaVuSans-99"/>
      <use x="599.023438" xlink:href="#DejaVuSans-111"/>
      <use x="660.205078" xlink:href="#DejaVuSans-114"/>
      <use x="699.568359" xlink:href="#DejaVuSans-114"/>
      <use x="738.431641" xlink:href="#DejaVuSans-101"/>
      <use x="799.955078" xlink:href="#DejaVuSans-108"/>
      <use x="827.738281" xlink:href="#DejaVuSans-97"/>
      <use x="889.017578" xlink:href="#DejaVuSans-116"/>
      <use x="928.226562" xlink:href="#DejaVuSans-105"/>
      <use x="956.009766" xlink:href="#DejaVuSans-111"/>
      <use x="1017.191406" xlink:href="#DejaVuSans-110"/>
     </g>
    </g>
   </g>
   <g id="LineCollection_1">
    <path clip-path="url(#p3e1bead61b)" d="M 59.42365 17.28 
L 59.42365 17.28 
" style="fill:none;stroke:#333333;stroke-width:0.886227;"/>
    <path clip-path="url(#p3e1bead61b)" d="M 59.42365 17.28 
L 59.42365 17.28 
" style="fill:none;stroke:#333333;stroke-width:0.886227;"/>
   </g>
   <g id="PolyCollection_1">
    <defs>
     <path d="M 51.527423 -248.034707 
L 51.527423 -248.034707 
L 67.319876 -248.034707 
L 67.319876 -248.034707 
L 51.527423 -248.034707 
z
" id="m659ea16322" style="stroke:#333333;stroke-width:0.886227;"/>
    </defs>
    <g clip-path="url(#p3e1bead61b)">
     <use style="fill:#ffffff;stroke:#333333;stroke-width:0.886227;" x="0" xlink:href="#m659ea16322" y="265.314707"/>
    </g>
   </g>
   <g id="LineCollection_2">
    <path clip-path="url(#p3e1bead61b)" d="M 51.527423 17.28 
L 67.319876 17.28 
" style="fill:none;stroke:#333333;stroke-width:1.772454;"/>
   </g>
   <g id="LineCollection_3">
    <path clip-path="url(#p3e1bead61b)" d="M 80.480254 19.568549 
L 80.480254 19.568549 
" style="fill:none;stroke:#333333;stroke-width:0.886227;"/>
    <path clip-path="url(#p3e1bead61b)" d="M 80.480254 19.568549 
L 80.480254 19.568549 
" style="fill:none;stroke:#333333;stroke-width:0.886227;"/>
   </g>
   <g id="PolyCollection_2">
    <defs>
     <path d="M 72.584027 -245.746158 
L 72.584027 -245.746158 
L 88.37648 -245.746158 
L 88.37648 -245.746158 
L 72.584027 -245.746158 
z
" id="m5ca4da10b1" style="stroke:#333333;stroke-width:0.886227;"/>
    </defs>
    <g clip-path="url(#p3e1bead61b)">
     <use style="fill:#ffffff;stroke:#333333;stroke-width:0.886227;" x="0" xlink:href="#m5ca4da10b1" y="265.314707"/>
    </g>
   </g>
   <g id="LineCollection_4">
    <path clip-path="url(#p3e1bead61b)" d="M 72.584027 19.568549 
L 88.37648 19.568549 
" style="fill:none;stroke:#333333;stroke-width:1.772454;"/>
   </g>
   <g id="LineCollection_5">
    <path clip-path="url(#p3e1bead61b)" d="M 101.536857 22.734517 
L 101.536857 22.734517 
" style="fill:none;stroke:#333333;stroke-width:0.886227;"/>
    <path clip-path="url(#p3e1bead61b)" d="M 101.536857 22.734517 
L 101.536857 22.734517 
" style="fill:none;stroke:#333333;stroke-width:0.886227;"/>
   </g>
   <g id="PolyCollection_3">
    <defs>
     <path d="M 93.640631 -242.58019 
L 93.640631 -242.58019 
L 109.433084 -242.58019 
L 109.433084 -242.58019 
L 93.640631 -242.58019 
z
" id="mbaa979859f" style="stroke:#333333;stroke-width:0.886227;"/>
    </defs>
    <g clip-path="url(#p3e1bead61b)">
     <use style="fill:#ffffff;stroke:#333333;stroke-width:0.886227;" x="0" xlink:href="#mbaa979859f" y="265.314707"/>
    </g>
   </g>
   <g id="LineCollection_6">
    <path clip-path="url(#p3e1bead61b)" d="M 93.640631 22.734517 
L 109.433084 22.734517 
" style="fill:none;stroke:#333333;stroke-width:1.772454;"/>
   </g>
   <g id="LineCollection_7">
    <path clip-path="url(#p3e1bead61b)" d="M 122.593461 33.846919 
L 122.593461 33.846919 
" style="fill:none;stroke:#333333;stroke-width:0.886227;"/>
    <path clip-path="url(#p3e1bead61b)" d="M 122.593461 33.846919 
L 122.593461 33.846919 
" style="fill:none;stroke:#333333;stroke-width:0.886227;"/>
   </g>
   <g id="PolyCollection_4">
    <defs>
     <path d="M 114.697235 -231.467788 
L 114.697235 -231.467788 
L 130.489688 -231.467788 
L 130.489688 -231.467788 
L 114.697235 -231.467788 
z
" id="m7e1e91d363" style="stroke:#333333;stroke-width:0.886227;"/>
    </defs>
    <g clip-path="url(#p3e1bead61b)">
     <use style="fill:#ffffff;stroke:#333333;stroke-width:0.886227;" x="0" xlink:href="#m7e1e91d363" y="265.314707"/>
    </g>
   </g>
   <g id="LineCollection_8">
    <path clip-path="url(#p3e1bead61b)" d="M 114.697235 33.846919 
L 130.489688 33.846919 
" style="fill:none;stroke:#333333;stroke-width:1.772454;"/>
   </g>
   <g id="LineCollection_9">
    <path clip-path="url(#p3e1bead61b)" d="M 143.650065 50.051298 
L 143.650065 50.051298 
" style="fill:none;stroke:#333333;stroke-width:0.886227;"/>
    <path clip-path="url(#p3e1bead61b)" d="M 143.650065 50.051298 
L 143.650065 50.051298 
" style="fill:none;stroke:#333333;stroke-width:0.886227;"/>
   </g>
   <g id="PolyCollection_5">
    <defs>
     <path d="M 135.753838 -215.263409 
L 135.753838 -215.263409 
L 151.546291 -215.263409 
L 151.546291 -215.263409 
L 135.753838 -215.263409 
z
" id="m5eed048f0e" style="stroke:#333333;stroke-width:0.886227;"/>
    </defs>
    <g clip-path="url(#p3e1bead61b)">
     <use style="fill:#ffffff;stroke:#333333;stroke-width:0.886227;" x="0" xlink:href="#m5eed048f0e" y="265.314707"/>
    </g>
   </g>
   <g id="LineCollection_10">
    <path clip-path="url(#p3e1bead61b)" d="M 135.753838 50.051298 
L 151.546291 50.051298 
" style="fill:none;stroke:#333333;stroke-width:1.772454;"/>
   </g>
   <g id="LineCollection_11">
    <path clip-path="url(#p3e1bead61b)" d="M 164.706669 72.813341 
L 164.706669 72.813341 
" style="fill:none;stroke:#333333;stroke-width:0.886227;"/>
    <path clip-path="url(#p3e1bead61b)" d="M 164.706669 72.813341 
L 164.706669 72.813341 
" style="fill:none;stroke:#333333;stroke-width:0.886227;"/>
   </g>
   <g id="PolyCollection_6">
    <defs>
     <path d="M 156.810442 -192.501366 
L 156.810442 -192.501366 
L 172.602895 -192.501366 
L 172.602895 -192.501366 
L 156.810442 -192.501366 
z
" id="m539f24f739" style="stroke:#333333;stroke-width:0.886227;"/>
    </defs>
    <g clip-path="url(#p3e1bead61b)">
     <use style="fill:#ffffff;stroke:#333333;stroke-width:0.886227;" x="0" xlink:href="#m539f24f739" y="265.314707"/>
    </g>
   </g>
   <g id="LineCollection_12">
    <path clip-path="url(#p3e1bead61b)" d="M 156.810442 72.813341 
L 172.602895 72.813341 
" style="fill:none;stroke:#333333;stroke-width:1.772454;"/>
   </g>
   <g id="LineCollection_13">
    <path clip-path="url(#p3e1bead61b)" d="M 185.763272 84.664433 
L 185.763272 84.664433 
" style="fill:none;stroke:#333333;stroke-width:0.886227;"/>
    <path clip-path="url(#p3e1bead61b)" d="M 185.763272 84.664433 
L 185.763272 84.664433 
" style="fill:none;stroke:#333333;stroke-width:0.886227;"/>
   </g>
   <g id="PolyCollection_7">
    <defs>
     <path d="M 177.867046 -180.650274 
L 177.867046 -180.650274 
L 193.659499 -180.650274 
L 193.659499 -180.650274 
L 177.867046 -180.650274 
z
" id="ma311ab8a96" style="stroke:#333333;stroke-width:0.886227;"/>
    </defs>
    <g clip-path="url(#p3e1bead61b)">
     <use style="fill:#ffffff;stroke:#333333;stroke-width:0.886227;" x="0" xlink:href="#ma311ab8a96" y="265.314707"/>
    </g>
   </g>
   <g id="LineCollection_14">
    <path clip-path="url(#p3e1bead61b)" d="M 177.867046 84.664433 
L 193.659499 84.664433 
" style="fill:none;stroke:#333333;stroke-width:1.772454;"/>
   </g>
   <g id="LineCollection_15">
    <path clip-path="url(#p3e1bead61b)" d="M 206.819876 90.836396 
L 206.819876 90.836396 
" style="fill:none;stroke:#333333;stroke-width:0.886227;"/>
    <path clip-path="url(#p3e1bead61b)" d="M 206.819876 90.836396 
L 206.819876 90.836396 
" style="fill:none;stroke:#333333;stroke-width:0.886227;"/>
   </g>
   <g id="PolyCollection_8">
    <defs>
     <path d="M 198.92365 -174.478311 
L 198.92365 -174.478311 
L 214.716103 -174.478311 
L 214.716103 -174.478311 
L 198.92365 -174.478311 
z
" id="m3423498dde" style="stroke:#333333;stroke-width:0.886227;"/>
    </defs>
    <g clip-path="url(#p3e1bead61b)">
     <use style="fill:#ffffff;stroke:#333333;stroke-width:0.886227;" x="0" xlink:href="#m3423498dde" y="265.314707"/>
    </g>
   </g>
   <g id="LineCollection_16">
    <path clip-path="url(#p3e1bead61b)" d="M 198.92365 90.836396 
L 214.716103 90.836396 
" style="fill:none;stroke:#333333;stroke-width:1.772454;"/>
   </g>
   <g id="LineCollection_17">
    <path clip-path="url(#p3e1bead61b)" d="M 227.87648 101.100309 
L 227.87648 101.100309 
" style="fill:none;stroke:#333333;stroke-width:0.886227;"/>
    <path clip-path="url(#p3e1bead61b)" d="M 227.87648 101.100309 
L 227.87648 101.100309 
" style="fill:none;stroke:#333333;stroke-width:0.886227;"/>
   </g>
   <g id="PolyCollection_9">
    <defs>
     <path d="M 219.980254 -164.214398 
L 219.980254 -164.214398 
L 235.772706 -164.214398 
L 235.772706 -164.214398 
L 219.980254 -164.214398 
z
" id="mac3bb445cd" style="stroke:#333333;stroke-width:0.886227;"/>
    </defs>
    <g clip-path="url(#p3e1bead61b)">
     <use style="fill:#ffffff;stroke:#333333;stroke-width:0.886227;" x="0" xlink:href="#mac3bb445cd" y="265.314707"/>
    </g>
   </g>
   <g id="LineCollection_18">
    <path clip-path="url(#p3e1bead61b)" d="M 219.980254 101.100309 
L 235.772706 101.100309 
" style="fill:none;stroke:#333333;stroke-width:1.772454;"/>
   </g>
   <g id="LineCollection_19">
    <path clip-path="url(#p3e1bead61b)" d="M 248.933084 101.253524 
L 248.933084 101.253524 
" style="fill:none;stroke:#333333;stroke-width:0.886227;"/>
    <path clip-path="url(#p3e1bead61b)" d="M 248.933084 101.253524 
L 248.933084 101.253524 
" style="fill:none;stroke:#333333;stroke-width:0.886227;"/>
   </g>
   <g id="PolyCollection_10">
    <defs>
     <path d="M 241.036857 -164.061183 
L 241.036857 -164.061183 
L 256.82931 -164.061183 
L 256.82931 -164.061183 
L 241.036857 -164.061183 
z
" id="m098619fe8f" style="stroke:#333333;stroke-width:0.886227;"/>
    </defs>
    <g clip-path="url(#p3e1bead61b)">
     <use style="fill:#ffffff;stroke:#333333;stroke-width:0.886227;" x="0" xlink:href="#m098619fe8f" y="265.314707"/>
    </g>
   </g>
   <g id="LineCollection_20">
    <path clip-path="url(#p3e1bead61b)" d="M 241.036857 101.253524 
L 256.82931 101.253524 
" style="fill:none;stroke:#333333;stroke-width:1.772454;"/>
   </g>
   <g id="LineCollection_21">
    <path clip-path="url(#p3e1bead61b)" d="M 269.989688 103.740698 
L 269.989688 103.740698 
" style="fill:none;stroke:#333333;stroke-width:0.886227;"/>
    <path clip-path="url(#p3e1bead61b)" d="M 269.989688 103.740698 
L 269.989688 103.740698 
" style="fill:none;stroke:#333333;stroke-width:0.886227;"/>
   </g>
   <g id="PolyCollection_11">
    <defs>
     <path d="M 262.093461 -161.574009 
L 262.093461 -161.574009 
L 277.885914 -161.574009 
L 277.885914 -161.574009 
L 262.093461 -161.574009 
z
" id="m0ea30a1c38" style="stroke:#333333;stroke-width:0.886227;"/>
    </defs>
    <g clip-path="url(#p3e1bead61b)">
     <use style="fill:#ffffff;stroke:#333333;stroke-width:0.886227;" x="0" xlink:href="#m0ea30a1c38" y="265.314707"/>
    </g>
   </g>
   <g id="LineCollection_22">
    <path clip-path="url(#p3e1bead61b)" d="M 262.093461 103.740698 
L 277.885914 103.740698 
" style="fill:none;stroke:#333333;stroke-width:1.772454;"/>
   </g>
   <g id="LineCollection_23">
    <path clip-path="url(#p3e1bead61b)" d="M 291.046291 104.10398 
L 291.046291 104.10398 
" style="fill:none;stroke:#333333;stroke-width:0.886227;"/>
    <path clip-path="url(#p3e1bead61b)" d="M 291.046291 104.10398 
L 291.046291 104.10398 
" style="fill:none;stroke:#333333;stroke-width:0.886227;"/>
   </g>
   <g id="PolyCollection_12">
    <defs>
     <path d="M 283.150065 -161.210727 
L 283.150065 -161.210727 
L 298.942518 -161.210727 
L 298.942518 -161.210727 
L 283.150065 -161.210727 
z
" id="m27cc08b4ee" style="stroke:#333333;stroke-width:0.886227;"/>
    </defs>
    <g clip-path="url(#p3e1bead61b)">
     <use style="fill:#ffffff;stroke:#333333;stroke-width:0.886227;" x="0" xlink:href="#m27cc08b4ee" y="265.314707"/>
    </g>
   </g>
   <g id="LineCollection_24">
    <path clip-path="url(#p3e1bead61b)" d="M 283.150065 104.10398 
L 298.942518 104.10398 
" style="fill:none;stroke:#333333;stroke-width:1.772454;"/>
   </g>
   <g id="LineCollection_25">
    <path clip-path="url(#p3e1bead61b)" d="M 312.102895 110.727218 
L 312.102895 110.727218 
" style="fill:none;stroke:#333333;stroke-width:0.886227;"/>
    <path clip-path="url(#p3e1bead61b)" d="M 312.102895 110.727218 
L 312.102895 110.727218 
" style="fill:none;stroke:#333333;stroke-width:0.886227;"/>
   </g>
   <g id="PolyCollection_13">
    <defs>
     <path d="M 304.206669 -154.587489 
L 304.206669 -154.587489 
L 319.999121 -154.587489 
L 319.999121 -154.587489 
L 304.206669 -154.587489 
z
" id="m881ff2b879" style="stroke:#333333;stroke-width:0.886227;"/>
    </defs>
    <g clip-path="url(#p3e1bead61b)">
     <use style="fill:#ffffff;stroke:#333333;stroke-width:0.886227;" x="0" xlink:href="#m881ff2b879" y="265.314707"/>
    </g>
   </g>
   <g id="LineCollection_26">
    <path clip-path="url(#p3e1bead61b)" d="M 304.206669 110.727218 
L 319.999121 110.727218 
" style="fill:none;stroke:#333333;stroke-width:1.772454;"/>
   </g>
   <g id="LineCollection_27">
    <path clip-path="url(#p3e1bead61b)" d="M 333.159499 119.423304 
L 333.159499 119.423304 
" style="fill:none;stroke:#333333;stroke-width:0.886227;"/>
    <path clip-path="url(#p3e1bead61b)" d="M 333.159499 119.423304 
L 333.159499 119.423304 
" style="fill:none;stroke:#333333;stroke-width:0.886227;"/>
   </g>
   <g id="PolyCollection_14">
    <defs>
     <path d="M 325.263272 -145.891403 
L 325.263272 -145.891403 
L 341.055725 -145.891403 
L 341.055725 -145.891403 
L 325.263272 -145.891403 
z
" id="m7f8fb22ade" style="stroke:#333333;stroke-width:0.886227;"/>
    </defs>
    <g clip-path="url(#p3e1bead61b)">
     <use style="fill:#ffffff;stroke:#333333;stroke-width:0.886227;" x="0" xlink:href="#m7f8fb22ade" y="265.314707"/>
    </g>
   </g>
   <g id="LineCollection_28">
    <path clip-path="url(#p3e1bead61b)" d="M 325.263272 119.423304 
L 341.055725 119.423304 
" style="fill:none;stroke:#333333;stroke-width:1.772454;"/>
   </g>
   <g id="LineCollection_29">
    <path clip-path="url(#p3e1bead61b)" d="M 354.216103 140.890894 
L 354.216103 140.890894 
" style="fill:none;stroke:#333333;stroke-width:0.886227;"/>
    <path clip-path="url(#p3e1bead61b)" d="M 354.216103 140.890894 
L 354.216103 140.890894 
" style="fill:none;stroke:#333333;stroke-width:0.886227;"/>
   </g>
   <g id="PolyCollection_15">
    <defs>
     <path d="M 346.319876 -124.423813 
L 346.319876 -124.423813 
L 362.112329 -124.423813 
L 362.112329 -124.423813 
L 346.319876 -124.423813 
z
" id="m7e8fe3bd01" style="stroke:#333333;stroke-width:0.886227;"/>
    </defs>
    <g clip-path="url(#p3e1bead61b)">
     <use style="fill:#ffffff;stroke:#333333;stroke-width:0.886227;" x="0" xlink:href="#m7e8fe3bd01" y="265.314707"/>
    </g>
   </g>
   <g id="LineCollection_30">
    <path clip-path="url(#p3e1bead61b)" d="M 346.319876 140.890894 
L 362.112329 140.890894 
" style="fill:none;stroke:#333333;stroke-width:1.772454;"/>
   </g>
   <g id="LineCollection_31">
    <path clip-path="url(#p3e1bead61b)" d="M 375.272706 154.842239 
L 375.272706 154.842239 
" style="fill:none;stroke:#333333;stroke-width:0.886227;"/>
    <path clip-path="url(#p3e1bead61b)" d="M 375.272706 154.842239 
L 375.272706 154.842239 
" style="fill:none;stroke:#333333;stroke-width:0.886227;"/>
   </g>
   <g id="PolyCollection_16">
    <defs>
     <path d="M 367.37648 -110.472468 
L 367.37648 -110.472468 
L 383.168933 -110.472468 
L 383.168933 -110.472468 
L 367.37648 -110.472468 
z
" id="m555a3892cd" style="stroke:#333333;stroke-width:0.886227;"/>
    </defs>
    <g clip-path="url(#p3e1bead61b)">
     <use style="fill:#ffffff;stroke:#333333;stroke-width:0.886227;" x="0" xlink:href="#m555a3892cd" y="265.314707"/>
    </g>
   </g>
   <g id="LineCollection_32">
    <path clip-path="url(#p3e1bead61b)" d="M 367.37648 154.842239 
L 383.168933 154.842239 
" style="fill:none;stroke:#333333;stroke-width:1.772454;"/>
   </g>
   <g id="LineCollection_33">
    <path clip-path="url(#p3e1bead61b)" d="M 396.32931 158.993092 
L 396.32931 158.993092 
" style="fill:none;stroke:#333333;stroke-width:0.886227;"/>
    <path clip-path="url(#p3e1bead61b)" d="M 396.32931 158.993092 
L 396.32931 158.993092 
" style="fill:none;stroke:#333333;stroke-width:0.886227;"/>
   </g>
   <g id="PolyCollection_17">
    <defs>
     <path d="M 388.433084 -106.321615 
L 388.433084 -106.321615 
L 404.225537 -106.321615 
L 404.225537 -106.321615 
L 388.433084 -106.321615 
z
" id="m31a965113a" style="stroke:#333333;stroke-width:0.886227;"/>
    </defs>
    <g clip-path="url(#p3e1bead61b)">
     <use style="fill:#ffffff;stroke:#333333;stroke-width:0.886227;" x="0" xlink:href="#m31a965113a" y="265.314707"/>
    </g>
   </g>
   <g id="LineCollection_34">
    <path clip-path="url(#p3e1bead61b)" d="M 388.433084 158.993092 
L 404.225537 158.993092 
" style="fill:none;stroke:#333333;stroke-width:1.772454;"/>
   </g>
   <g id="LineCollection_35">
    <path clip-path="url(#p3e1bead61b)" d="M 417.385914 182.446918 
L 417.385914 182.446918 
" style="fill:none;stroke:#333333;stroke-width:0.886227;"/>
    <path clip-path="url(#p3e1bead61b)" d="M 417.385914 182.446918 
L 417.385914 182.446918 
" style="fill:none;stroke:#333333;stroke-width:0.886227;"/>
   </g>
   <g id="PolyCollection_18">
    <defs>
     <path d="M 409.489688 -82.867789 
L 409.489688 -82.867789 
L 425.28214 -82.867789 
L 425.28214 -82.867789 
L 409.489688 -82.867789 
z
" id="mb43dad42c9" style="stroke:#333333;stroke-width:0.886227;"/>
    </defs>
    <g clip-path="url(#p3e1bead61b)">
     <use style="fill:#ffffff;stroke:#333333;stroke-width:0.886227;" x="0" xlink:href="#mb43dad42c9" y="265.314707"/>
    </g>
   </g>
   <g id="LineCollection_36">
    <path clip-path="url(#p3e1bead61b)" d="M 409.489688 182.446918 
L 425.28214 182.446918 
" style="fill:none;stroke:#333333;stroke-width:1.772454;"/>
   </g>
   <g id="LineCollection_37">
    <path clip-path="url(#p3e1bead61b)" d="M 438.442518 216.700835 
L 438.442518 216.700835 
" style="fill:none;stroke:#333333;stroke-width:0.886227;"/>
    <path clip-path="url(#p3e1bead61b)" d="M 438.442518 216.700835 
L 438.442518 216.700835 
" style="fill:none;stroke:#333333;stroke-width:0.886227;"/>
   </g>
   <g id="PolyCollection_19">
    <defs>
     <path d="M 430.546291 -48.613872 
L 430.546291 -48.613872 
L 446.338744 -48.613872 
L 446.338744 -48.613872 
L 430.546291 -48.613872 
z
" id="m6eee0f5d2e" style="stroke:#333333;stroke-width:0.886227;"/>
    </defs>
    <g clip-path="url(#p3e1bead61b)">
     <use style="fill:#ffffff;stroke:#333333;stroke-width:0.886227;" x="0" xlink:href="#m6eee0f5d2e" y="265.314707"/>
    </g>
   </g>
   <g id="LineCollection_38">
    <path clip-path="url(#p3e1bead61b)" d="M 430.546291 216.700835 
L 446.338744 216.700835 
" style="fill:none;stroke:#333333;stroke-width:1.772454;"/>
   </g>
   <g id="LineCollection_39">
    <path clip-path="url(#p3e1bead61b)" d="M 459.499121 218.320594 
L 459.499121 218.320594 
" style="fill:none;stroke:#333333;stroke-width:0.886227;"/>
    <path clip-path="url(#p3e1bead61b)" d="M 459.499121 218.320594 
L 459.499121 218.320594 
" style="fill:none;stroke:#333333;stroke-width:0.886227;"/>
   </g>
   <g id="PolyCollection_20">
    <defs>
     <path d="M 451.602895 -46.994113 
L 451.602895 -46.994113 
L 467.395348 -46.994113 
L 467.395348 -46.994113 
L 451.602895 -46.994113 
z
" id="m9ef8a57d80" style="stroke:#333333;stroke-width:0.886227;"/>
    </defs>
    <g clip-path="url(#p3e1bead61b)">
     <use style="fill:#ffffff;stroke:#333333;stroke-width:0.886227;" x="0" xlink:href="#m9ef8a57d80" y="265.314707"/>
    </g>
   </g>
   <g id="LineCollection_40">
    <path clip-path="url(#p3e1bead61b)" d="M 451.602895 218.320594 
L 467.395348 218.320594 
" style="fill:none;stroke:#333333;stroke-width:1.772454;"/>
   </g>
   <g id="LineCollection_41">
    <path clip-path="url(#p3e1bead61b)" d="M 480.555725 218.88 
L 480.555725 218.88 
" style="fill:none;stroke:#333333;stroke-width:0.886227;"/>
    <path clip-path="url(#p3e1bead61b)" d="M 480.555725 218.88 
L 480.555725 218.88 
" style="fill:none;stroke:#333333;stroke-width:0.886227;"/>
   </g>
   <g id="PolyCollection_21">
    <defs>
     <path d="M 472.659499 -46.434707 
L 472.659499 -46.434707 
L 488.451952 -46.434707 
L 488.451952 -46.434707 
L 472.659499 -46.434707 
z
" id="m0dee670a6b" style="stroke:#333333;stroke-width:0.886227;"/>
    </defs>
    <g clip-path="url(#p3e1bead61b)">
     <use style="fill:#ffffff;stroke:#333333;stroke-width:0.886227;" x="0" xlink:href="#m0dee670a6b" y="265.314707"/>
    </g>
   </g>
   <g id="LineCollection_42">
    <path clip-path="url(#p3e1bead61b)" d="M 472.659499 218.88 
L 488.451952 218.88 
" style="fill:none;stroke:#333333;stroke-width:1.772454;"/>
   </g>
  </g>
 </g>
 <defs>
  <clipPath id="p3e1bead61b">
   <rect height="221.76" width="446.4" x="46.789687" y="7.2"/>
  </clipPath>
 </defs>
</svg>
